<?xml version="1.0" encoding="UTF-8"?>
<svg width="928.022509px" height="893.076533px" viewBox="0 0 928.022509 893.076533" version="1.1" xmlns="http://www.w3.org/2000/svg" xmlns:xlink="http://www.w3.org/1999/xlink">
    <title>Path</title>
    <g id="Page-1" stroke="none" stroke-width="1" fill="none" fill-rule="evenodd">
        <path d="M464.004939,32 C477.870406,32 491.718434,35.7949842 503.765356,43.2850351 C514.974772,50.2543756 524.6916,60.4033094 531.330144,73.8556492 L621.560522,256.686059 C623.173166,259.954237 626.29205,262.217156 629.906218,262.741448 L831.678368,292.061907 C846.523573,294.2207 859.176708,300.32607 869.267505,308.832346 C880.112887,317.974718 888.000842,329.97089 892.2862,343.156375 C896.572393,356.344433 897.243107,370.687073 893.843995,384.457191 C890.680335,397.273474 884.03048,409.651301 873.289357,420.118988 L727.297109,562.423465 C724.689219,564.967015 723.489536,568.633771 724.109571,572.226325 L758.570412,773.18393 C761.108353,787.96989 759.213096,801.891833 754.240339,814.119492 C748.897262,827.257741 739.925354,838.467096 728.707444,846.618497 C717.490438,854.769242 704.05777,859.840594 689.911328,860.866177 C676.744223,861.820761 662.916547,859.325458 649.629776,852.345341 L469.180668,757.481905 C465.945177,755.782412 462.077216,755.782412 458.851524,757.476756 L278.396251,852.343431 C265.116899,859.326659 251.288539,861.825896 238.120673,860.87382 C223.972637,859.850875 210.537963,854.779866 199.31888,846.627611 C188.100176,838.475632 179.12704,827.264462 173.783153,814.124396 C168.809423,801.894506 166.913952,787.970407 169.451129,773.188899 L203.912823,572.226325 C204.532857,568.633771 203.33317,564.967012 200.732202,562.43021 L54.7276816,420.113767 C43.9879391,409.640415 37.3404643,397.261496 34.1778925,384.445994 C30.7791357,370.673413 31.4504887,356.330413 35.7361931,343.14386 C40.0224515,329.955603 47.9124483,317.959186 58.760036,308.818859 C68.8519325,300.315287 81.5059884,294.213876 96.3522603,292.06071 L298.123907,262.740325 C301.730343,262.217156 304.849227,259.954237 306.462796,256.684185 L396.689493,73.861234 C403.323422,60.4074505 413.03664,50.2577738 424.24394,43.2874906 C436.288908,35.796227 450.137107,32 464.004939,32 Z" id="Path" stroke="#FFFFFF" stroke-width="64" fill="#FFFFFF" fill-rule="nonzero"></path>
    </g>
</svg>